<svg width="20" height="21" viewBox="0 0 20 21" fill="none" xmlns="http://www.w3.org/2000/svg">
<g clip-path="url(#clip0_50_2000)">
<path d="M9.53834 1.66636C9.70914 1.25571 10.2909 1.25571 10.4617 1.66636L12.5278 6.63384C12.5998 6.80696 12.7626 6.92524 12.9495 6.94023L18.3123 7.37016C18.7556 7.4057 18.9354 7.95895 18.5976 8.24829L14.5117 11.7483C14.3693 11.8703 14.3071 12.0617 14.3506 12.244L15.5989 17.4772C15.7021 17.9098 15.2315 18.2518 14.8519 18.0199L10.2606 15.2156C10.1006 15.1179 9.89938 15.1179 9.73937 15.2156L5.14806 18.0199C4.76851 18.2518 4.29788 17.9098 4.40108 17.4772L5.64939 12.244C5.69289 12.0617 5.6307 11.8703 5.48831 11.7483L1.40241 8.24829C1.06464 7.95895 1.24441 7.4057 1.68773 7.37016L7.05054 6.94023C7.23744 6.92524 7.40024 6.80696 7.47225 6.63384L9.53834 1.66636Z" fill="#E5E7EB"/>
<g clip-path="url(#clip1_50_2000)">
<path d="M9.53834 1.66636C9.70914 1.25571 10.2909 1.25571 10.4617 1.66636L12.5278 6.63384C12.5998 6.80696 12.7626 6.92524 12.9495 6.94023L18.3123 7.37016C18.7556 7.4057 18.9354 7.95895 18.5976 8.24829L14.5117 11.7483C14.3693 11.8703 14.3071 12.0617 14.3506 12.244L15.5989 17.4772C15.7021 17.9098 15.2315 18.2518 14.8519 18.0199L10.2606 15.2156C10.1006 15.1179 9.89938 15.1179 9.73937 15.2156L5.14806 18.0199C4.76851 18.2518 4.29788 17.9098 4.40108 17.4772L5.64939 12.244C5.69289 12.0617 5.6307 11.8703 5.48831 11.7483L1.40241 8.24829C1.06464 7.95895 1.24441 7.4057 1.68773 7.37016L7.05054 6.94023C7.23744 6.92524 7.40024 6.80696 7.47225 6.63384L9.53834 1.66636Z" fill="#FACC15"/>
</g>
</g>
<defs>
<clipPath id="clip0_50_2000">
<rect width="20" height="20" fill="white" transform="translate(0 0.0563965)"/>
</clipPath>
<clipPath id="clip1_50_2000">
<rect width="10" height="20" fill="white" transform="translate(0 0.0563965)"/>
</clipPath>
</defs>
</svg>
